<svg xmlns="http://www.w3.org/2000/svg" xmlns:xlink="http://www.w3.org/1999/xlink" width="500" zoomAndPan="magnify" viewBox="0 0 375 374.999991" height="500" preserveAspectRatio="xMidYMid meet" version="1.0"><defs><g/><clipPath id="f8892305f2"><path d="M 37.5 128.230469 L 93.75 128.230469 L 93.75 249.921875 L 37.5 249.921875 Z M 37.5 128.230469 " clip-rule="nonzero"/></clipPath></defs><g fill="#e6e6dd" fill-opacity="1"><g transform="translate(92.472655, 247.721461)"><g><path d="M 5.3125 0 L 5.3125 -120.0625 L 29.21875 -120.0625 L 29.21875 -77.15625 L 40.53125 -77.15625 L 40.53125 -120.0625 L 64.4375 -120.0625 L 64.4375 0 L 40.53125 0 L 40.53125 -54.515625 L 29.21875 -54.515625 L 29.21875 0 Z M 5.3125 0 "/></g></g></g><g fill="#e6e6dd" fill-opacity="1"><g transform="translate(162.21766, 247.721461)"><g><path d="M 33.125 1.125 C 23.25 1.125 15.910156 -1.671875 11.109375 -7.265625 C 6.304688 -12.859375 3.90625 -21.148438 3.90625 -32.140625 L 3.90625 -120.0625 L 27.25 -120.0625 L 27.25 -33.125 C 27.25 -29.300781 27.617188 -26.316406 28.359375 -24.171875 C 29.109375 -22.035156 30.695312 -20.96875 33.125 -20.96875 C 35.550781 -20.96875 37.132812 -22.015625 37.875 -24.109375 C 38.625 -26.203125 39 -29.207031 39 -33.125 L 39 -120.0625 L 62.328125 -120.0625 L 62.328125 -32.140625 C 62.328125 -21.148438 59.925781 -12.859375 55.125 -7.265625 C 50.332031 -1.671875 43 1.125 33.125 1.125 Z M 33.125 1.125 "/></g></g></g><g fill="#e6e6dd" fill-opacity="1"><g transform="translate(228.46843, 247.721461)"><g><path d="M 5.3125 0 L 5.3125 -120.0625 L 30.046875 -120.0625 L 41.09375 -62.609375 L 41.09375 -120.0625 L 64.296875 -120.0625 L 64.296875 0 L 40.8125 0 L 28.796875 -60.09375 L 28.796875 0 Z M 5.3125 0 "/></g></g></g><g fill="#e6e6dd" fill-opacity="1"><g transform="translate(298.07367, 247.721461)"><g><path d="M 15.65625 0 L 15.65625 -97 L 1.390625 -97 L 1.390625 -120.0625 L 53.953125 -120.0625 L 53.953125 -97 L 39.6875 -97 L 39.6875 0 Z M 15.65625 0 "/></g></g></g><g clip-path="url(#f8892305f2)"><path fill="#e6e6dd" d="M 37.5 128.230469 L 93.75 128.230469 L 93.75 249.960938 L 37.5 249.960938 Z M 37.5 128.230469 " fill-opacity="1" fill-rule="nonzero"/></g><g fill="#2b2b2b" fill-opacity="1"><g transform="translate(83.251812, 242.051732)"><g><path d="M 0.34375 -10.453125 C 0.34375 -7.703125 -0.515625 -5.5 -2.234375 -3.84375 C -3.960938 -2.1875 -6.335938 -1.359375 -9.359375 -1.359375 L -26.734375 -1.359375 C -30.484375 -1.359375 -33.304688 -2.101562 -35.203125 -3.59375 C -37.109375 -5.09375 -38.0625 -7.4375 -38.0625 -10.625 C -38.0625 -13.40625 -37.300781 -15.644531 -35.78125 -17.34375 C -34.257812 -19.039062 -32.066406 -19.890625 -29.203125 -19.890625 L -22.703125 -19.890625 L -22.703125 -12.375 L -28.28125 -12.375 C -29.363281 -12.375 -30.109375 -12.242188 -30.515625 -11.984375 C -30.921875 -11.722656 -31.125 -11.269531 -31.125 -10.625 C -31.125 -9.945312 -30.890625 -9.484375 -30.421875 -9.234375 C -29.953125 -8.992188 -29.265625 -8.875 -28.359375 -8.875 L -9.4375 -8.875 C -8.445312 -8.875 -7.722656 -9.019531 -7.265625 -9.3125 C -6.804688 -9.601562 -6.578125 -10.039062 -6.578125 -10.625 C -6.578125 -11.789062 -7.53125 -12.375 -9.4375 -12.375 L -16.25 -12.375 L -16.25 -19.984375 L -9.125 -19.984375 C -2.8125 -19.984375 0.34375 -16.804688 0.34375 -10.453125 Z M 0.34375 -10.453125 "/></g></g></g><g fill="#2b2b2b" fill-opacity="1"><g transform="translate(83.251812, 221.243857)"><g><path d="M 0.34375 -10.671875 C 0.34375 -7.628906 -0.582031 -5.316406 -2.4375 -3.734375 C -4.289062 -2.148438 -6.90625 -1.359375 -10.28125 -1.359375 L -28.234375 -1.359375 C -31.484375 -1.359375 -33.929688 -2.148438 -35.578125 -3.734375 C -37.234375 -5.316406 -38.0625 -7.628906 -38.0625 -10.671875 C -38.0625 -13.710938 -37.234375 -16.023438 -35.578125 -17.609375 C -33.929688 -19.191406 -31.484375 -19.984375 -28.234375 -19.984375 L -10.28125 -19.984375 C -6.882812 -19.984375 -4.265625 -19.191406 -2.421875 -17.609375 C -0.578125 -16.023438 0.34375 -13.710938 0.34375 -10.671875 Z M -6.578125 -10.671875 C -6.578125 -11.335938 -6.867188 -11.785156 -7.453125 -12.015625 C -8.046875 -12.253906 -8.867188 -12.375 -9.921875 -12.375 L -28.359375 -12.375 C -29.179688 -12.375 -29.847656 -12.265625 -30.359375 -12.046875 C -30.867188 -11.828125 -31.125 -11.382812 -31.125 -10.71875 C -31.125 -9.457031 -30.175781 -8.828125 -28.28125 -8.828125 L -9.875 -8.828125 C -8.789062 -8.828125 -7.96875 -8.957031 -7.40625 -9.21875 C -6.851562 -9.476562 -6.578125 -9.960938 -6.578125 -10.671875 Z M -6.578125 -10.671875 "/></g></g></g><g fill="#2b2b2b" fill-opacity="1"><g transform="translate(83.251812, 199.90921)"><g><path d="M 0 -1.671875 L -37.71875 -1.671875 L -37.71875 -13.171875 L -14.703125 -16.328125 L -37.71875 -19.5 L -37.71875 -31.078125 L 0 -31.078125 L 0 -24.1875 L -27.171875 -24.1875 L 0 -19.84375 L 0 -13.078125 L -27.171875 -8.46875 L 0 -8.46875 Z M 0 -1.671875 "/></g></g></g><g fill="#2b2b2b" fill-opacity="1"><g transform="translate(83.251812, 167.160959)"><g><path d="M 0 -1.3125 L -37.71875 -1.3125 L -37.71875 -8.609375 L 0 -8.609375 Z M 0 -1.3125 "/></g></g></g><g fill="#2b2b2b" fill-opacity="1"><g transform="translate(83.251812, 157.196005)"><g><path d="M 0.34375 -10.453125 C 0.34375 -7.703125 -0.515625 -5.5 -2.234375 -3.84375 C -3.960938 -2.1875 -6.335938 -1.359375 -9.359375 -1.359375 L -26.734375 -1.359375 C -30.484375 -1.359375 -33.304688 -2.101562 -35.203125 -3.59375 C -37.109375 -5.09375 -38.0625 -7.4375 -38.0625 -10.625 C -38.0625 -13.40625 -37.300781 -15.644531 -35.78125 -17.34375 C -34.257812 -19.039062 -32.066406 -19.890625 -29.203125 -19.890625 L -22.703125 -19.890625 L -22.703125 -12.375 L -28.28125 -12.375 C -29.363281 -12.375 -30.109375 -12.242188 -30.515625 -11.984375 C -30.921875 -11.722656 -31.125 -11.269531 -31.125 -10.625 C -31.125 -9.945312 -30.890625 -9.484375 -30.421875 -9.234375 C -29.953125 -8.992188 -29.265625 -8.875 -28.359375 -8.875 L -9.4375 -8.875 C -8.445312 -8.875 -7.722656 -9.019531 -7.265625 -9.3125 C -6.804688 -9.601562 -6.578125 -10.039062 -6.578125 -10.625 C -6.578125 -11.789062 -7.53125 -12.375 -9.4375 -12.375 L -16.25 -12.375 L -16.25 -19.984375 L -9.125 -19.984375 C -2.8125 -19.984375 0.34375 -16.804688 0.34375 -10.453125 Z M 0.34375 -10.453125 "/></g></g></g></svg>