<svg xmlns="http://www.w3.org/2000/svg" xmlns:xlink="http://www.w3.org/1999/xlink" width="500" zoomAndPan="magnify" viewBox="0 0 375 374.999991" height="500" preserveAspectRatio="xMidYMid meet" version="1.0"><defs><clipPath id="aed58bb920"><path d="M 28.796875 35.542969 L 346.046875 35.542969 L 346.046875 339.292969 L 28.796875 339.292969 Z M 28.796875 35.542969 " clip-rule="nonzero"/></clipPath></defs><rect x="-37.5" width="450" fill="#ffffff" y="-37.499999" height="449.999989" fill-opacity="1"/><rect x="-37.5" width="450" fill="#ffffff" y="-37.499999" height="449.999989" fill-opacity="1"/><g clip-path="url(#aed58bb920)"><path fill="#affc41" d="M 336.632812 254.453125 C 336.40625 254.589844 335.964844 254.757812 335.371094 254.757812 L 313.34375 254.757812 C 312.75 254.757812 312.308594 254.589844 312.082031 254.453125 L 312.082031 250.464844 C 312.109375 250.445312 312.148438 250.429688 312.179688 250.414062 L 334.394531 250.414062 C 334.988281 250.414062 335.566406 250.355469 336.132812 250.257812 C 336.347656 250.316406 336.519531 250.394531 336.632812 250.464844 Z M 326.078125 296.898438 L 201.867188 329.976562 C 201.871094 329.921875 201.878906 329.867188 201.878906 329.8125 L 201.878906 177.945312 C 201.878906 177.832031 201.867188 177.722656 201.859375 177.613281 L 324.476562 144.960938 L 326.097656 144.960938 C 324.265625 158.128906 322.824219 170.339844 321.71875 182.042969 L 309.699219 182.042969 C 303.953125 182.042969 299.28125 186.71875 299.28125 192.460938 L 299.28125 200.144531 C 299.28125 202.339844 299.96875 204.378906 301.132812 206.0625 C 299.96875 207.742188 299.28125 209.78125 299.28125 211.980469 L 299.28125 219.660156 C 299.28125 221.664062 299.859375 223.535156 300.847656 225.125 C 299.054688 226.996094 297.945312 229.527344 297.945312 232.3125 L 297.945312 239.996094 C 297.945312 244.15625 300.402344 247.742188 303.933594 249.414062 C 303.917969 249.617188 303.898438 249.832031 303.898438 250.042969 L 303.898438 254.871094 C 303.898438 259.398438 308.046875 262.941406 313.34375 262.941406 L 320.464844 262.941406 C 321.523438 275.4375 323.25 285.921875 326.078125 296.898438 Z M 192.101562 331.265625 L 179.625 331.265625 C 178.757812 331.265625 178.027344 330.597656 178.027344 329.8125 L 178.027344 177.945312 C 178.027344 177.15625 178.757812 176.488281 179.625 176.488281 L 181.367188 176.488281 L 182.40625 176.839844 L 182.519531 176.488281 L 183.847656 176.488281 L 183.960938 176.839844 L 185 176.488281 L 192.101562 176.488281 C 192.683594 176.488281 193.199219 176.792969 193.476562 177.230469 L 193.476562 330.523438 C 193.199219 330.960938 192.683594 331.265625 192.101562 331.265625 Z M 169.84375 330.03125 L 45.417969 296.898438 C 48.121094 286.171875 50.039062 274.234375 51.15625 261.332031 L 61.640625 261.332031 C 66.9375 261.332031 71.085938 257.789062 71.085938 253.261719 L 71.085938 248.433594 C 71.085938 248.21875 71.066406 248.007812 71.050781 247.800781 C 74.582031 246.132812 77.039062 242.542969 77.039062 238.382812 L 77.039062 230.703125 C 77.039062 227.914062 75.929688 225.382812 74.140625 223.511719 C 75.125 221.921875 75.707031 220.054688 75.707031 218.050781 L 75.707031 210.367188 C 75.707031 208.171875 75.015625 206.132812 73.847656 204.449219 C 75.015625 202.769531 75.707031 200.730469 75.707031 198.53125 L 75.707031 190.851562 C 75.707031 185.105469 71.03125 180.433594 65.285156 180.433594 L 49.628906 180.433594 C 48.546875 169.207031 47.152344 157.503906 45.394531 144.910156 C 45.742188 144.886719 46.074219 144.839844 46.40625 144.796875 L 169.84375 177.664062 Z M 38.351562 252.839844 L 38.351562 248.851562 C 38.46875 248.78125 38.636719 248.707031 38.855469 248.644531 C 39.417969 248.742188 39.996094 248.800781 40.585938 248.800781 L 62.804688 248.800781 C 62.835938 248.820312 62.875 248.835938 62.902344 248.851562 L 62.902344 252.839844 C 62.675781 252.980469 62.238281 253.148438 61.640625 253.148438 L 49.019531 253.148438 L 43.613281 252.75 L 43.582031 253.148438 L 39.613281 253.148438 C 39.019531 253.148438 38.578125 252.980469 38.351562 252.839844 Z M 39.253906 220.285156 C 38.042969 220.285156 37.019531 219.257812 37.019531 218.050781 L 37.019531 210.367188 C 37.019531 209.769531 37.269531 209.222656 37.667969 208.816406 C 38.1875 208.898438 38.710938 208.949219 39.253906 208.949219 L 65.285156 208.949219 C 65.828125 208.949219 66.355469 208.898438 66.875 208.816406 C 67.269531 209.222656 67.523438 209.769531 67.523438 210.367188 L 67.523438 218.050781 C 67.523438 219.257812 66.496094 220.285156 65.285156 220.285156 Z M 66.617188 228.46875 C 67.832031 228.46875 68.855469 229.492188 68.855469 230.703125 L 68.855469 238.382812 C 68.855469 239.597656 67.832031 240.617188 66.617188 240.617188 L 64.007812 240.617188 C 63.253906 240.460938 62.464844 240.363281 61.640625 240.363281 L 39.613281 240.363281 C 39.605469 240.363281 39.597656 240.363281 39.589844 240.363281 C 38.867188 239.992188 38.351562 239.238281 38.351562 238.382812 L 38.351562 230.703125 C 38.351562 229.492188 39.375 228.46875 40.585938 228.46875 Z M 37.019531 190.851562 C 37.019531 189.636719 38.042969 188.617188 39.253906 188.617188 L 42.171875 188.617188 L 42.195312 188.851562 L 44.777344 188.617188 L 65.285156 188.617188 C 66.496094 188.617188 67.523438 189.636719 67.523438 190.851562 L 67.523438 198.53125 C 67.523438 199.128906 67.269531 199.679688 66.875 200.082031 C 66.355469 200.003906 65.828125 199.949219 65.285156 199.949219 L 39.253906 199.949219 C 38.710938 199.949219 38.1875 200.003906 37.667969 200.082031 C 37.269531 199.679688 37.019531 199.128906 37.019531 198.53125 Z M 56.902344 134.488281 L 122.003906 156.457031 L 55.128906 138.648438 C 55.90625 137.316406 56.492188 135.890625 56.902344 134.488281 Z M 186.039062 167.503906 L 183.65625 168.304688 L 182.710938 168.304688 L 180.328125 167.503906 Z M 185.863281 43.707031 C 228.390625 43.707031 262.992188 78.3125 262.992188 120.835938 C 262.992188 125.144531 262.632812 129.453125 261.921875 133.6875 L 185.96875 159.320312 L 180.613281 159.320312 L 110.132812 135.535156 C 109.203125 130.707031 108.730469 125.773438 108.730469 120.835938 C 108.730469 78.3125 143.332031 43.707031 185.863281 43.707031 Z M 311.992188 139.816406 L 225.136719 162.945312 L 309.460938 134.488281 C 310 136.308594 310.820312 138.171875 311.992188 139.816406 Z M 326.140625 144.675781 L 326.140625 144.515625 L 326.160156 144.511719 C 326.15625 144.566406 326.144531 144.621094 326.140625 144.675781 Z M 336.632812 239.996094 C 336.632812 240.847656 336.121094 241.601562 335.394531 241.976562 C 335.386719 241.976562 335.378906 241.976562 335.371094 241.976562 L 313.34375 241.976562 C 312.519531 241.976562 311.730469 242.070312 310.976562 242.230469 L 308.363281 242.230469 C 307.15625 242.230469 306.128906 241.207031 306.128906 239.996094 L 306.128906 232.3125 C 306.128906 231.105469 307.15625 230.078125 308.363281 230.078125 L 334.394531 230.078125 C 335.609375 230.078125 336.632812 231.105469 336.632812 232.3125 Z M 337.964844 211.980469 L 337.964844 219.660156 C 337.964844 220.871094 336.941406 221.894531 335.730469 221.894531 L 309.699219 221.894531 C 308.484375 221.894531 307.464844 220.871094 307.464844 219.660156 L 307.464844 211.980469 C 307.464844 211.382812 307.714844 210.835938 308.109375 210.429688 C 308.632812 210.507812 309.15625 210.5625 309.699219 210.5625 L 335.730469 210.5625 C 336.269531 210.5625 336.800781 210.507812 337.316406 210.429688 C 337.714844 210.835938 337.964844 211.382812 337.964844 211.980469 Z M 337.964844 192.460938 L 337.964844 200.144531 C 337.964844 200.738281 337.714844 201.292969 337.316406 201.695312 C 336.800781 201.617188 336.269531 201.5625 335.730469 201.5625 L 309.699219 201.5625 C 309.15625 201.5625 308.632812 201.617188 308.109375 201.695312 C 307.714844 201.292969 307.464844 200.738281 307.464844 200.144531 L 307.464844 192.460938 C 307.464844 191.25 308.484375 190.226562 309.699219 190.226562 L 335.730469 190.226562 C 336.941406 190.226562 337.964844 191.25 337.964844 192.460938 Z M 346.148438 192.460938 C 346.148438 186.71875 341.476562 182.042969 335.730469 182.042969 L 329.941406 182.042969 C 331.207031 168.777344 332.910156 154.839844 335.132812 139.554688 L 330.035156 135.011719 L 323.40625 136.777344 L 322.046875 136.777344 C 317.121094 136.777344 316.789062 129.269531 316.777344 128.972656 L 311.378906 125.207031 L 267.359375 140.0625 L 269.523438 137.59375 C 270.621094 132.101562 271.175781 126.464844 271.175781 120.835938 C 271.175781 73.796875 232.902344 35.523438 185.863281 35.523438 C 138.820312 35.523438 100.546875 73.796875 100.546875 120.835938 C 100.546875 127.136719 101.242188 133.433594 102.613281 139.554688 L 104.835938 142.027344 L 54.988281 125.207031 L 49.589844 128.953125 C 49.582031 129.222656 49.339844 134.628906 46.285156 136.292969 L 41.46875 135.011719 L 36.367188 139.554688 C 38.507812 154.238281 40.160156 167.652344 41.40625 180.433594 L 39.253906 180.433594 C 33.511719 180.433594 28.835938 185.105469 28.835938 190.851562 L 28.835938 198.53125 C 28.835938 200.730469 29.523438 202.769531 30.691406 204.449219 C 29.523438 206.132812 28.835938 208.171875 28.835938 210.367188 L 28.835938 218.050781 C 28.835938 220.835938 29.941406 223.367188 31.730469 225.238281 C 30.746094 226.828125 30.167969 228.699219 30.167969 230.703125 L 30.167969 238.382812 C 30.167969 240.40625 30.757812 242.292969 31.761719 243.890625 C 30.753906 245.179688 30.167969 246.734375 30.167969 248.433594 L 30.167969 253.261719 C 30.167969 257.789062 34.316406 261.332031 39.613281 261.332031 L 42.949219 261.332031 C 41.722656 275.085938 39.550781 287.640625 36.472656 298.703125 L 39.367188 303.753906 L 172.882812 339.3125 L 174.546875 338.03125 C 176.027344 338.925781 177.761719 339.449219 179.625 339.449219 L 192.101562 339.449219 C 193.910156 339.449219 195.597656 338.953125 197.054688 338.109375 L 198.621094 339.3125 L 332.136719 303.753906 L 335.03125 298.703125 C 331.761719 286.949219 329.828125 276.097656 328.679688 262.941406 L 335.371094 262.941406 C 340.667969 262.941406 344.8125 259.398438 344.8125 254.871094 L 344.8125 250.042969 C 344.8125 248.347656 344.234375 246.789062 343.226562 245.503906 C 344.226562 243.902344 344.8125 242.019531 344.8125 239.996094 L 344.8125 232.3125 C 344.8125 230.308594 344.234375 228.441406 343.25 226.851562 C 345.042969 224.980469 346.148438 222.449219 346.148438 219.660156 L 346.148438 211.980469 C 346.148438 209.78125 345.460938 207.742188 344.292969 206.0625 C 345.460938 204.378906 346.148438 202.339844 346.148438 200.144531 L 346.148438 192.460938 " fill-opacity="1" fill-rule="nonzero"/></g></svg>