<svg xmlns="http://www.w3.org/2000/svg" xmlns:xlink="http://www.w3.org/1999/xlink" width="500" zoomAndPan="magnify" viewBox="0 0 375 374.999991" height="500" preserveAspectRatio="xMidYMid meet" version="1.0"><defs><g/></defs><g fill="#42f2f7" fill-opacity="1"><g transform="translate(94.081712, 236.064532)"><g><path d="M 4.5625 0 L 4.5625 -103.0625 L 25.078125 -103.0625 L 25.078125 -66.234375 L 34.796875 -66.234375 L 34.796875 -103.0625 L 55.3125 -103.0625 L 55.3125 0 L 34.796875 0 L 34.796875 -46.796875 L 25.078125 -46.796875 L 25.078125 0 Z M 4.5625 0 "/></g></g></g><g fill="#42f2f7" fill-opacity="1"><g transform="translate(153.95328, 236.064532)"><g><path d="M 28.4375 0.953125 C 19.957031 0.953125 13.65625 -1.441406 9.53125 -6.234375 C 5.414062 -11.035156 3.359375 -18.15625 3.359375 -27.59375 L 3.359375 -103.0625 L 23.390625 -103.0625 L 23.390625 -28.4375 C 23.390625 -25.15625 23.707031 -22.59375 24.34375 -20.75 C 24.988281 -18.914062 26.351562 -18 28.4375 -18 C 30.519531 -18 31.878906 -18.894531 32.515625 -20.6875 C 33.148438 -22.488281 33.46875 -25.070312 33.46875 -28.4375 L 33.46875 -103.0625 L 53.515625 -103.0625 L 53.515625 -27.59375 C 53.515625 -18.15625 51.453125 -11.035156 47.328125 -6.234375 C 43.210938 -1.441406 36.914062 0.953125 28.4375 0.953125 Z M 28.4375 0.953125 "/></g></g></g><g fill="#42f2f7" fill-opacity="1"><g transform="translate(210.825266, 236.064532)"><g><path d="M 4.5625 0 L 4.5625 -103.0625 L 25.796875 -103.0625 L 35.28125 -53.75 L 35.28125 -103.0625 L 55.1875 -103.0625 L 55.1875 0 L 35.03125 0 L 24.71875 -51.59375 L 24.71875 0 Z M 4.5625 0 "/></g></g></g><g fill="#42f2f7" fill-opacity="1"><g transform="translate(270.576874, 236.064532)"><g><path d="M 13.4375 0 L 13.4375 -83.265625 L 1.203125 -83.265625 L 1.203125 -103.0625 L 46.3125 -103.0625 L 46.3125 -83.265625 L 34.078125 -83.265625 L 34.078125 0 Z M 13.4375 0 "/></g></g></g><g fill="#ffffff" fill-opacity="1"><g transform="translate(94.931607, 237.507378)"><g><path d="M 0.34375 -10.453125 C 0.34375 -7.703125 -0.515625 -5.5 -2.234375 -3.84375 C -3.960938 -2.1875 -6.335938 -1.359375 -9.359375 -1.359375 L -26.734375 -1.359375 C -30.484375 -1.359375 -33.304688 -2.101562 -35.203125 -3.59375 C -37.109375 -5.09375 -38.0625 -7.4375 -38.0625 -10.625 C -38.0625 -13.40625 -37.300781 -15.644531 -35.78125 -17.34375 C -34.257812 -19.039062 -32.066406 -19.890625 -29.203125 -19.890625 L -22.703125 -19.890625 L -22.703125 -12.375 L -28.28125 -12.375 C -29.363281 -12.375 -30.109375 -12.242188 -30.515625 -11.984375 C -30.921875 -11.722656 -31.125 -11.269531 -31.125 -10.625 C -31.125 -9.945312 -30.890625 -9.484375 -30.421875 -9.234375 C -29.953125 -8.992188 -29.265625 -8.875 -28.359375 -8.875 L -9.4375 -8.875 C -8.445312 -8.875 -7.722656 -9.019531 -7.265625 -9.3125 C -6.804688 -9.601562 -6.578125 -10.039062 -6.578125 -10.625 C -6.578125 -11.789062 -7.53125 -12.375 -9.4375 -12.375 L -16.25 -12.375 L -16.25 -19.984375 L -9.125 -19.984375 C -2.8125 -19.984375 0.34375 -16.804688 0.34375 -10.453125 Z M 0.34375 -10.453125 "/></g></g></g><g fill="#ffffff" fill-opacity="1"><g transform="translate(94.931607, 216.699503)"><g><path d="M 0.34375 -10.671875 C 0.34375 -7.628906 -0.582031 -5.316406 -2.4375 -3.734375 C -4.289062 -2.148438 -6.90625 -1.359375 -10.28125 -1.359375 L -28.234375 -1.359375 C -31.484375 -1.359375 -33.929688 -2.148438 -35.578125 -3.734375 C -37.234375 -5.316406 -38.0625 -7.628906 -38.0625 -10.671875 C -38.0625 -13.710938 -37.234375 -16.023438 -35.578125 -17.609375 C -33.929688 -19.191406 -31.484375 -19.984375 -28.234375 -19.984375 L -10.28125 -19.984375 C -6.882812 -19.984375 -4.265625 -19.191406 -2.421875 -17.609375 C -0.578125 -16.023438 0.34375 -13.710938 0.34375 -10.671875 Z M -6.578125 -10.671875 C -6.578125 -11.335938 -6.867188 -11.785156 -7.453125 -12.015625 C -8.046875 -12.253906 -8.867188 -12.375 -9.921875 -12.375 L -28.359375 -12.375 C -29.179688 -12.375 -29.847656 -12.265625 -30.359375 -12.046875 C -30.867188 -11.828125 -31.125 -11.382812 -31.125 -10.71875 C -31.125 -9.457031 -30.175781 -8.828125 -28.28125 -8.828125 L -9.875 -8.828125 C -8.789062 -8.828125 -7.96875 -8.957031 -7.40625 -9.21875 C -6.851562 -9.476562 -6.578125 -9.960938 -6.578125 -10.671875 Z M -6.578125 -10.671875 "/></g></g></g><g fill="#ffffff" fill-opacity="1"><g transform="translate(94.931607, 195.364856)"><g><path d="M 0 -1.671875 L -37.71875 -1.671875 L -37.71875 -13.171875 L -14.703125 -16.328125 L -37.71875 -19.5 L -37.71875 -31.078125 L 0 -31.078125 L 0 -24.1875 L -27.171875 -24.1875 L 0 -19.84375 L 0 -13.078125 L -27.171875 -8.46875 L 0 -8.46875 Z M 0 -1.671875 "/></g></g></g><g fill="#ffffff" fill-opacity="1"><g transform="translate(94.931607, 162.616605)"><g><path d="M 0 -1.3125 L -37.71875 -1.3125 L -37.71875 -8.609375 L 0 -8.609375 Z M 0 -1.3125 "/></g></g></g><g fill="#ffffff" fill-opacity="1"><g transform="translate(94.931607, 152.651652)"><g><path d="M 0.34375 -10.453125 C 0.34375 -7.703125 -0.515625 -5.5 -2.234375 -3.84375 C -3.960938 -2.1875 -6.335938 -1.359375 -9.359375 -1.359375 L -26.734375 -1.359375 C -30.484375 -1.359375 -33.304688 -2.101562 -35.203125 -3.59375 C -37.109375 -5.09375 -38.0625 -7.4375 -38.0625 -10.625 C -38.0625 -13.40625 -37.300781 -15.644531 -35.78125 -17.34375 C -34.257812 -19.039062 -32.066406 -19.890625 -29.203125 -19.890625 L -22.703125 -19.890625 L -22.703125 -12.375 L -28.28125 -12.375 C -29.363281 -12.375 -30.109375 -12.242188 -30.515625 -11.984375 C -30.921875 -11.722656 -31.125 -11.269531 -31.125 -10.625 C -31.125 -9.945312 -30.890625 -9.484375 -30.421875 -9.234375 C -29.953125 -8.992188 -29.265625 -8.875 -28.359375 -8.875 L -9.4375 -8.875 C -8.445312 -8.875 -7.722656 -9.019531 -7.265625 -9.3125 C -6.804688 -9.601562 -6.578125 -10.039062 -6.578125 -10.625 C -6.578125 -11.789062 -7.53125 -12.375 -9.4375 -12.375 L -16.25 -12.375 L -16.25 -19.984375 L -9.125 -19.984375 C -2.8125 -19.984375 0.34375 -16.804688 0.34375 -10.453125 Z M 0.34375 -10.453125 "/></g></g></g></svg>